<svg xmlns="http://www.w3.org/2000/svg" width="520" height="520" viewBox="0 0 520 520" fill="none"><rect width="520" height="520" rx="124" fill="#E7E7E7"></rect><g clip-path="url(#clip0_630_1415)"><path fill-rule="evenodd" clip-rule="evenodd" d="M262.861 403.99L279.199 397.186C278.292 394.891 275.608 393.309 272.412 393.309C268.327 393.289 262.664 396.909 262.861 403.99ZM282.041 410.577L288.276 414.73C286.264 417.717 281.429 422.86 273.043 422.86C262.664 422.86 255.166 414.81 255.166 404.544C255.166 393.645 262.723 386.228 272.155 386.228C280.818 386.525 286.204 392.122 288.632 399.955L264.163 410.082C266.038 413.761 268.939 415.64 273.023 415.64C277.088 415.64 279.93 413.623 282.001 410.577M242.34 421.752H250.371V367.952H242.34V421.752ZM229.237 404.603C229.237 398.155 224.936 393.428 219.47 393.428C213.945 393.428 209.288 398.155 209.288 404.603C209.288 410.992 213.925 415.64 219.47 415.64C224.955 415.64 229.237 410.992 229.237 404.603ZM236.302 387.336V420.17C236.302 433.699 228.349 439.257 218.937 439.257C210.077 439.257 204.75 433.284 202.737 428.438L209.722 425.53C210.965 428.517 214.024 432.057 218.937 432.057C227.915 431.035 228.705 425.214 228.705 418.667H228.409C226.613 420.882 223.14 422.84 218.779 422.84C209.643 422.84 201.257 414.869 201.257 404.583C201.257 394.239 209.623 386.188 218.779 386.188C223.14 386.188 226.613 388.127 228.409 390.283H228.685V387.296C228.685 387.276 236.302 387.276 236.302 387.276V387.336ZM148.69 404.544C148.69 397.957 143.994 393.448 138.568 393.448C133.121 393.448 128.445 397.957 128.445 404.544C128.445 411.071 133.141 415.64 138.568 415.64C143.994 415.64 148.69 411.051 148.69 404.544ZM156.583 404.544C156.583 415.086 148.493 422.86 138.568 422.86C128.642 422.86 120.552 415.086 120.552 404.544C120.552 393.922 128.642 386.228 138.568 386.228C148.493 386.228 156.583 393.922 156.583 404.544ZM189.141 404.544C189.141 397.957 184.445 393.448 179.019 393.448C173.573 393.448 168.896 397.957 168.896 404.544C168.896 411.071 173.592 415.64 179.019 415.64C184.445 415.64 189.141 411.051 189.141 404.544ZM197.034 404.544C197.034 415.086 188.944 422.86 179.019 422.86C169.093 422.86 161.003 415.086 161.003 404.544C161.003 393.922 169.093 386.228 179.019 386.228C188.944 386.228 197.034 393.922 197.034 404.544ZM89.6907 422.86C74.0628 422.86 60.8816 410.082 60.8816 394.377C60.8816 378.692 74.043 365.895 89.6907 365.895C98.3532 365.895 104.51 369.297 109.147 373.747L103.681 379.226C100.366 376.101 95.8669 373.668 89.6907 373.668C78.2657 373.668 69.3665 382.905 69.3665 394.239C69.3665 405.691 78.3052 414.809 89.6907 414.809C97.0903 414.809 101.313 411.823 104.016 409.113C106.226 406.898 107.687 403.693 108.239 399.322H89.6907V391.549H115.737C116.014 392.933 116.152 394.595 116.152 396.395C116.152 402.23 114.553 409.449 109.443 414.572C104.47 419.814 98.0967 422.603 89.7104 422.603" fill="#5F6368"></path><path d="M307.484 421.345V373.516H313.646L330.217 402.647H330.466L347.037 373.516H353.199V421.345H347.039L347.289 384.952H347.039L332.134 411.161H328.553L313.648 384.952H313.398C313.853 397.057 313.648 409.242 313.648 421.345H307.484ZM372.435 422.179C368.937 422.179 366.106 421.178 363.774 419.174C361.443 417.171 360.277 414.5 360.277 411.243C360.277 407.654 361.693 404.899 364.441 402.896C367.188 400.893 370.603 399.891 374.6 399.891C378.18 399.891 381.178 400.559 383.426 401.894C383.366 394.952 378.58 393.046 374.849 393.046C371.327 393.214 368.271 394.691 367.022 397.804L361.443 395.384C362.192 393.464 363.691 391.625 365.939 389.958C368.188 388.291 371.102 387.454 374.766 387.454C378.93 387.454 382.427 388.706 385.175 391.127C387.923 393.547 389.338 397.053 389.338 401.477V421.259H383.509V416.752C380.786 420.174 377.106 422.102 372.435 422.177V422.179ZM383.426 406.988C379.837 404.25 372.351 403.908 368.854 406.737C366.106 409.408 365.815 412.989 368.687 415.084C375.632 419.55 383.676 412.597 383.426 406.988ZM413.237 422.179C410.739 422.179 408.491 421.679 406.575 420.593C404.66 419.508 403.161 418.173 402.162 416.587H401.829L402.079 421.094V435.535H396V388.374H401.829V392.881H402.079C403.078 391.295 404.494 389.96 406.492 388.875C408.491 387.79 410.739 387.289 413.154 387.289C417.4 387.289 420.981 388.958 424.062 392.297C427.143 395.636 428.64 399.809 428.64 404.734C428.64 409.659 427.141 413.832 424.062 417.171C421.064 420.51 417.4 422.179 413.237 422.179ZM412.238 416.503C415.069 416.503 417.484 415.418 419.565 413.248C421.647 411.078 422.646 408.24 422.646 404.651C422.646 401.061 421.647 398.223 419.565 396.053C417.484 393.883 415.069 392.798 412.238 392.798C409.323 392.798 406.908 393.883 404.91 395.97C402.911 398.14 401.912 400.978 401.912 404.567C401.912 408.156 402.911 411.078 404.91 413.165C406.908 415.502 409.323 416.503 412.238 416.503ZM446.545 422.179C442.881 422.179 439.883 421.261 437.552 419.508C435.137 417.755 433.472 415.502 432.306 412.831L437.802 410.577C439.55 414.667 442.465 416.754 446.628 416.754C448.543 416.754 450.126 416.338 451.291 415.502C452.54 414.667 453.123 413.582 453.123 412.163C453.123 409.993 451.624 408.574 448.627 407.823L442.048 406.237C439.967 405.736 437.968 404.651 436.136 403.232C434.304 401.813 433.305 399.726 433.305 397.222C433.305 394.3 434.554 391.963 437.135 390.21C439.717 388.374 442.715 387.539 446.212 387.539C449.126 387.539 451.708 388.207 453.956 389.543C456.204 390.878 457.87 392.714 458.786 395.219L453.456 397.389C452.291 394.467 449.793 393.048 445.962 393.048C444.13 393.048 442.631 393.464 441.384 394.217C440.137 394.97 439.552 395.97 439.552 397.305C439.552 399.142 440.968 400.477 443.882 401.145L450.377 402.647C453.458 403.399 455.707 404.567 457.206 406.32C458.704 408.073 459.371 409.993 459.371 412.163C459.371 415.084 458.205 417.589 455.79 419.508C453.458 421.178 450.377 422.179 446.547 422.179H446.545Z" fill="#63666A"></path><path d="M224.975 259.975C232.454 269.35 240.07 281.139 244.056 288.26C248.91 297.516 250.923 303.767 254.534 314.962C256.645 321.094 258.658 322.953 262.881 322.953C267.498 322.953 269.61 319.828 271.228 314.962C274.602 304.459 277.206 296.468 281.33 288.853C297.235 258.788 323.163 237.426 337.765 208.152C337.765 208.152 347.374 190.271 347.374 165.23C347.374 141.89 337.903 125.671 337.903 125.671L225.034 260.173L224.975 259.975Z" fill="#34A853"></path><path d="M186.695 204.987C195.791 225.756 213.136 243.953 224.975 259.975L287.724 185.405C287.724 185.405 278.864 197.036 262.861 197.036C245.023 197.036 230.5 182.795 230.5 164.795C230.5 152.413 237.86 143.829 237.86 143.829C191.687 150.712 194.252 161.927 186.556 204.948L186.695 204.987Z" fill="#FBBC04"></path><path d="M288.513 83.8768C309.429 90.6217 327.188 104.843 337.844 125.612L287.724 185.544C287.724 185.544 295.084 176.92 295.084 164.578C295.084 146.202 279.614 132.337 262.92 132.337C247.075 132.337 238.058 143.829 238.058 143.829C241.905 135.047 281.666 86.8636 288.572 83.8966L288.513 83.8768Z" fill="#4285F4"></path><path d="M198.139 110.243C210.61 95.3688 232.473 79.9802 262.664 79.9802C277.246 79.9802 288.316 83.857 288.316 83.857L237.998 143.789C234.605 141.944 201.494 116.098 198.139 110.164V110.243Z" fill="#1A73E8"></path><path d="M186.695 204.987C186.695 204.987 178.466 188.61 178.466 165.033C178.466 142.682 187.188 123.1 198.198 110.441L238.058 144.066L186.754 204.987H186.695Z" fill="#EA4335"></path></g><defs><clipPath id="clip0_630_1415"><rect width="398" height="359.198" fill="white" transform="translate(61 80)"></rect></clipPath></defs></svg>