<svg xmlns="http://www.w3.org/2000/svg" width="520" height="520" viewBox="0 0 520 520" fill="none"><rect width="520" height="520" rx="124" fill="#010202"></rect><path d="M113.044 284.417C114.442 288.1 116.379 291.249 118.854 293.864C121.328 296.479 124.26 298.481 127.649 299.868C131.038 301.256 134.723 301.95 138.704 301.95C142.578 301.95 146.209 301.229 149.598 299.788C152.987 298.347 155.946 296.319 158.474 293.704C161.002 291.088 162.966 287.967 164.365 284.337C165.764 280.708 166.463 276.652 166.463 272.169V203H183.408V315.079H166.624V304.671C162.859 308.621 158.42 311.663 153.31 313.798C148.199 315.933 142.685 317 136.768 317C130.742 317 125.121 315.959 119.902 313.878C114.684 311.796 110.165 308.834 106.346 304.992C102.527 301.149 99.514 296.533 97.3086 291.142C95.1027 285.752 94 279.748 94 273.129V203H110.946V272.169C110.946 276.652 111.645 280.735 113.044 284.417ZM212.618 203V243.829C216.384 240.093 220.741 237.131 225.69 234.942C230.64 232.754 236.019 231.66 241.829 231.66C247.854 231.66 253.502 232.781 258.775 235.022C264.046 237.264 268.619 240.306 272.492 244.149C276.366 247.992 279.432 252.528 281.692 257.758C283.951 262.989 285.08 268.539 285.08 274.41C285.08 280.281 283.951 285.805 281.692 290.981C279.432 296.159 276.366 300.669 272.492 304.511C268.619 308.354 264.046 311.396 258.775 313.638C253.502 315.879 247.854 317 241.829 317C236.019 317 230.613 315.906 225.61 313.717C220.607 311.529 216.222 308.567 212.457 304.831V315.078H196.318V203H212.618ZM214.474 285.458C215.926 288.874 217.944 291.863 220.526 294.424C223.108 296.986 226.121 299.014 229.564 300.509C233.007 302.003 236.718 302.75 240.699 302.75C244.573 302.75 248.231 302.003 251.674 300.509C255.116 299.014 258.102 296.987 260.631 294.424C263.159 291.863 265.176 288.874 266.683 285.458C268.189 282.042 268.942 278.36 268.942 274.41C268.942 270.461 268.189 266.751 266.683 263.282C265.176 259.813 263.159 256.798 260.631 254.236C258.102 251.675 255.117 249.673 251.674 248.232C248.23 246.791 244.573 246.07 240.699 246.07C236.826 246.07 233.168 246.791 229.725 248.232C226.283 249.673 223.27 251.675 220.687 254.236C218.106 256.798 216.061 259.813 214.555 263.282C213.049 266.751 212.296 270.461 212.296 274.41C212.295 278.36 213.022 282.042 214.474 285.458ZM294.278 257.919C296.43 252.795 299.389 248.285 303.154 244.389C306.919 240.493 311.385 237.425 316.549 235.183C321.714 232.941 327.309 231.821 333.334 231.821C339.251 231.821 344.738 232.888 349.795 235.023C354.852 237.158 359.209 240.12 362.867 243.909C366.526 247.698 369.377 252.182 371.421 257.359C373.465 262.536 374.487 268.166 374.487 274.251V279.535H307.512C308.05 282.844 309.126 285.912 310.74 288.741C312.354 291.569 314.371 294.024 316.792 296.106C319.212 298.188 321.956 299.816 325.022 300.989C328.089 302.163 331.343 302.751 334.786 302.751C344.577 302.751 352.485 298.748 358.51 290.742L370.292 299.388C366.203 304.832 361.147 309.102 355.121 312.197C349.096 315.292 342.318 316.84 334.787 316.84C328.654 316.84 322.925 315.772 317.599 313.638C312.273 311.503 307.647 308.514 303.72 304.671C299.793 300.828 296.7 296.319 294.44 291.142C292.181 285.965 291.051 280.334 291.051 274.25C291.05 268.486 292.126 263.042 294.278 257.919ZM316.953 251.594C312.38 255.384 309.341 260.427 307.835 266.725H358.026C356.627 260.427 353.642 255.384 349.069 251.594C344.496 247.805 339.144 245.91 333.011 245.91C326.878 245.91 321.526 247.805 316.953 251.594ZM404.988 253.435C401.546 257.171 399.824 262.241 399.824 268.646V315.079H383.524V233.422H399.662V243.509C401.707 240.2 404.369 237.584 407.651 235.663C410.932 233.741 414.833 232.781 419.352 232.781H425V247.831H418.222C412.842 247.832 408.431 249.699 404.988 253.435Z" fill="white"></path></svg>