<svg xmlns="http://www.w3.org/2000/svg" width="520" height="520" viewBox="0 0 520 520" fill="none"><rect width="520" height="520" rx="124" fill="#33CCFF"></rect><g clip-path="url(#clip0_629_1403)"><path fill-rule="evenodd" clip-rule="evenodd" d="M271.5 104.5C243.069 104.5 216.556 117.278 198.667 139.958C186.208 155.931 179.5 175.736 179.5 195.861V212.792C179.5 220.139 176.625 227.167 171.833 232.278C168 236.111 163.208 238.986 158.097 240.264C160.014 245.056 164.486 252.403 172.472 260.389C179.181 267.417 187.167 273.167 195.792 277.319V277C201.222 268.694 210.167 263.903 220.069 263.903C221.986 263.903 223.583 264.222 225.5 264.542C237 266.778 245.944 275.722 248.181 286.903H271.819C296.417 286.903 319.736 276.681 336.667 260.069C362.861 233.875 370.847 194.583 356.472 160.722C342.097 126.542 308.875 104.5 271.5 104.5Z" fill="white"></path><path fill-rule="evenodd" clip-rule="evenodd" d="M271.5 93C239.875 93 210.167 107.056 190.042 132.292C175.667 150.5 168 172.861 168 196.181V212.792C168 221.417 161.931 229.403 150.111 230.042C147.236 230.042 145 232.278 144.681 235.153C144.361 242.819 152.667 257.194 164.167 268.694C172.153 276.681 181.417 283.069 191.319 288.181C188.125 305.75 201.861 321.722 219.75 321.722C219.75 321.722 219.75 321.722 220.069 321.722C233.806 321.722 245.306 312.139 248.181 299.042H272.139C274.694 312.139 286.194 321.722 300.25 321.722C303.444 321.722 306.958 321.083 310.153 320.125C318.139 317.569 324.208 311.5 327.083 303.514C329.639 296.167 329.319 288.819 327.083 282.75C333.472 278.597 339.222 274.125 344.653 268.694C364.139 249.528 375 223.333 375 196.181C375 168.708 364.139 143.153 344.653 123.667C325.167 103.542 298.972 93 271.5 93ZM271.5 104.5C308.556 104.5 342.097 126.861 356.472 161.042C370.847 195.222 362.861 234.514 336.667 260.389C319.736 277.319 296.417 287.222 271.819 287.222H248.181C245.944 275.722 237 267.097 225.5 264.861C223.583 264.542 221.986 264.222 220.069 264.222C210.486 264.222 201.222 269.014 195.792 277.319V277.639C187.167 273.167 179.5 267.417 172.472 260.708C164.486 252.722 160.014 245.056 158.097 240.583C163.528 239.306 168 236.431 171.833 232.597C176.625 227.167 179.5 220.458 179.5 213.111V196.181C179.5 176.056 186.208 156.25 198.667 140.278C216.556 116.958 243.069 104.5 271.5 104.5Z" fill="#191938"></path><path fill-rule="evenodd" clip-rule="evenodd" d="M317.5 161.361C311.111 161.361 306 166.472 306 172.861C306 179.25 311.111 184.361 317.5 184.361C323.889 184.361 329 179.25 329 172.861C329 166.472 323.889 161.361 317.5 161.361Z" fill="#191938"></path><path fill-rule="evenodd" clip-rule="evenodd" d="M248.5 161.361C242.111 161.361 237 166.472 237 172.861C237 179.25 242.111 184.361 248.5 184.361C254.889 184.361 260 179.25 260 172.861C260 166.472 254.889 161.361 248.5 161.361Z" fill="#191938"></path><path fill-rule="evenodd" clip-rule="evenodd" d="M246.583 207.042C242.431 207.042 239.556 211.194 241.472 215.028C249.139 231 265.111 241.222 283 241.222C300.889 241.222 316.861 231 324.528 215.028C326.125 211.194 323.569 207.042 319.417 207.042C317.181 207.042 315.264 208.319 314.306 210.236C308.556 222.055 296.417 229.722 283.319 229.722C269.903 229.722 257.764 222.055 252.333 210.236C251.056 208.319 249.139 207.042 246.583 207.042Z" fill="#191938"></path></g><path fill-rule="evenodd" clip-rule="evenodd" d="M132.912 366.293C131.07 366.293 130.149 367.521 130.763 369.363L146.419 417.558C146.726 418.786 147.953 420.014 149.181 420.014H161.767C163.302 420.014 164.223 419.093 164.53 417.558L173.126 385.632L182.028 417.558C182.335 418.786 183.563 420.014 185.098 420.014H197.377C198.912 420.014 199.833 419.093 200.446 417.558L216.102 369.67C216.716 367.828 215.795 366.6 213.953 366.6H204.437C202.902 366.6 201.981 367.828 201.674 368.749L191.851 402.823L182.335 368.442C182.028 366.907 180.8 366.293 179.572 366.293H167.907C166.372 366.293 165.451 366.907 165.144 368.442L155.628 402.516L146.112 368.442C145.805 367.214 145.191 366.293 143.349 366.293H132.912ZM244.651 364.758C230.53 364.758 217.637 375.809 217.637 393C217.637 410.191 230.53 421.549 244.651 421.549C252.326 421.549 258.465 418.172 261.228 413.567V417.558C261.228 418.786 262.149 419.707 263.377 419.707H273.2C274.428 419.707 275.349 418.786 275.349 417.558V368.442C275.349 367.214 274.428 365.986 273.2 365.986H263.377C262.149 365.986 261.228 367.214 261.228 368.442V372.739C258.465 368.135 252.326 364.758 244.651 364.758ZM246.8 377.958C255.088 377.958 261.228 384.712 261.228 393C261.228 401.288 255.088 408.042 246.8 408.042C238.512 408.042 232.372 401.288 232.372 393C232.065 384.712 238.512 377.958 246.8 377.958ZM286.707 366.293C285.479 366.293 284.558 367.214 284.558 368.442V376.116C284.558 377.344 285.479 378.265 287.014 378.572H310.958L284.558 408.042C283.637 408.963 283.33 409.577 283.33 410.805V417.558C283.33 418.786 284.251 419.707 285.786 420.014H329.07C330.298 420.014 331.219 419.093 331.219 417.865V410.191C331.219 408.963 330.298 407.735 329.07 407.735H302.977L329.07 378.265C329.991 377.651 330.298 376.73 330.298 375.502V368.442C330.298 367.214 329.377 366.293 327.842 365.986H286.707V366.293ZM361.916 364.758C345.339 364.758 333.367 377.344 333.367 393.307C333.367 409.27 345.033 421.242 361.916 421.242C373.888 421.242 380.949 416.637 385.246 410.805C385.86 409.884 386.167 408.349 384.939 407.428L377.879 402.516C377.572 402.209 376.958 402.209 376.651 402.209C376.037 402.209 375.423 402.516 374.809 403.13C371.433 406.814 367.749 408.656 362.223 408.656C354.856 408.656 349.023 403.744 348.102 396.07H386.474C388.623 396.07 388.93 394.842 388.93 393.614V390.851C389.544 377.344 378.493 364.758 361.916 364.758ZM361.916 376.116C368.056 376.116 373.888 380.107 375.116 387.474H348.716C350.251 380.721 355.47 376.116 361.916 376.116Z" fill="black"></path><defs><clipPath id="clip0_629_1403"><rect width="230" height="228.403" fill="white" transform="translate(145 93)"></rect></clipPath></defs></svg>