<svg width="172" height="73" viewBox="0 0 172 73" fill="none" xmlns="http://www.w3.org/2000/svg">
<path fill-rule="evenodd" clip-rule="evenodd" d="M12.3469 0L0 7.54093L12.339 15.0819L24.6859 7.54093L12.3469 0Z" fill="#BE0F0F"/>
<path fill-rule="evenodd" clip-rule="evenodd" d="M12.3547 15.074L0.0157085 7.50964L0 58.6143L12.339 66.4525L12.3547 15.074Z" fill="white"/>
<path fill-rule="evenodd" clip-rule="evenodd" d="M62.8654 56.7445L62.6769 54.2256L62.0957 51.918L59.7866 47.9363L57.9801 46.2544L57.7602 46.1136V56.588L57.6895 58.1369L57.124 60.8122L56.0165 62.9634L53.5503 65.3571L51.4454 66.4366L49.042 67.1172L46.4108 67.4848L43.6304 67.6022H26.0369V46.2544H43.6304L46.8506 46.4109L49.6703 46.8959L52.0894 47.7094L55.7102 50.2909L57.5324 54.1709L57.7602 56.588V46.1136L56.1815 45.1045L53.9823 44.2206L51.516 43.7043V43.5557L54.4457 42.4996L55.4196 41.9051L56.1343 41.3888L58.2471 39.2454L59.7866 36.6249L60.6662 33.6367L60.839 31.5715L60.7526 29.7723L60.0379 26.6433L58.6398 24.1166L57.4931 22.8025L56.7391 22.0984L55.7259 21.3553V32.8466L55.6788 33.7618L54.9798 36.3667L53.4246 38.604L51.0291 40.3562L47.7853 41.5062L45.1148 41.866L43.6304 41.9051H26.0369V22.8025H43.6304L47.3219 23.0841L50.3536 23.9211L52.702 25.3135L54.3828 27.2691L55.396 29.7723L55.7259 32.8466V21.3553L53.0633 19.955L50.1258 19.0946L46.9449 18.6174L43.6304 18.4609H20.9316V71.9515H43.6304L47.6753 71.756L51.1076 71.1614L53.9823 70.2618L56.37 69.1432L58.5063 67.6022L60.3913 65.4275L61.7423 62.9243L62.5041 60.4367L62.8104 58.0978L62.8576 57.4016L62.8654 56.7445Z" fill="white"/>
<path fill-rule="evenodd" clip-rule="evenodd" d="M99.1443 51.8788L98.7673 47.8893L97.8562 44.0015L96.3717 40.5205L94.3925 37.6262V49.9232H69.2903L69.7537 47.3339L70.5313 44.7916L71.6309 42.4292L73.0525 40.3719L74.7961 38.6509L76.8854 37.2976L79.3045 36.4293L82.0692 36.1399L83.4594 36.2103L86.012 36.7891L88.2661 37.9312L90.1826 39.4645L91.7613 41.3653L92.9787 43.5556L93.8427 46.0041L94.3061 48.5855L94.3925 49.9232V37.6262L91.6121 35.0525L88.2976 33.2221L84.3155 32.2834L82.0692 32.166L79.8543 32.2755L75.8879 33.1595L72.542 34.8804L69.8165 37.2037L67.7037 40.0668L66.1486 43.3444L65.1276 46.9741L64.617 50.7211L64.5542 52.622L64.617 54.6558L65.1276 58.5671L66.1486 62.2515L67.7037 65.5057L69.8165 68.2984L72.542 70.5043L75.8879 72.0923L79.8543 72.898L82.0692 72.9997L85.5407 72.7729L88.596 72.1001L91.2351 70.9737L93.4578 69.4013L93.7327 69.1041L95.3114 67.4144L96.8508 65.0598L98.0682 62.3219L98.9793 59.2164H94.2432L93.5678 61.3519L92.6645 63.2606L90.1826 66.4053L86.6953 68.4313L82.0692 69.1041L80.4433 69.0102L77.5451 68.2984L75.1339 66.9216L73.1389 65.1224L71.5602 62.9634L70.4135 60.5071L69.6909 57.824L69.3374 55.18L69.2903 53.8971H99.1286L99.1443 51.8788Z" fill="white"/>
<path fill-rule="evenodd" clip-rule="evenodd" d="M133.773 47.0679L133.608 43.7981L133.098 40.8646L132.179 38.3145L130.765 36.1946L128.841 34.5049L126.367 33.2455L123.296 32.4632L119.557 32.1973L117.531 32.3302L113.737 33.3941L110.368 35.4827L107.957 38.2989L107.155 39.9729H106.998V33.3159H102.262V71.881H106.998V49.3834L107.085 47.991L107.556 45.3548L108.412 42.9454L109.622 40.8568L112.056 38.3614L114.106 37.1646L116.486 36.4136L119.188 36.1555L120.555 36.2181L122.942 36.6639L125.684 38.1189L127.529 40.3405L128.582 43.2192L129.006 46.6064L129.037 47.8189V71.881H133.773V47.0679Z" fill="white"/>
<path fill-rule="evenodd" clip-rule="evenodd" d="M172 71.8814L156.888 51.7774L170.877 33.3162H164.931L154.1 47.9678L143.049 33.3162H137.104L151.021 51.8557L135.98 71.8814H141.848L153.802 55.6652L165.984 71.8814H172Z" fill="white"/>
</svg>
