<svg xmlns="http://www.w3.org/2000/svg" xmlns:xlink="http://www.w3.org/1999/xlink" viewBox="0 0 429.73 115.46"><defs><style>      .cls-1 {        fill: url(#linear-gradient-2);      }      .cls-2 {        fill: #fff;      }      .cls-3 {        fill: none;      }      .cls-4 {        fill: url(#linear-gradient-4);        opacity: .9;      }      .cls-5 {        fill: url(#linear-gradient-3);      }      .cls-6 {        fill: url(#linear-gradient-5);      }      .cls-7 {        isolation: isolate;      }      .cls-8 {        fill: url(#linear-gradient-7);      }      .cls-9 {        fill: url(#linear-gradient-6);      }      .cls-10 {        fill: url(#linear-gradient);      }      .cls-11 {        fill: #cddc29;        mix-blend-mode: multiply;      }      .cls-12 {        fill: url(#linear-gradient-8);        opacity: .63;      }    </style><linearGradient id="linear-gradient" x1="3930.92" y1="996" x2="3978.14" y2="996" gradientTransform="translate(4074 893.02) rotate(-154.17) scale(1 -1)" gradientUnits="userSpaceOnUse"><stop offset="0" stop-color="#f1645c"></stop><stop offset="1" stop-color="#cf2027"></stop></linearGradient><linearGradient id="linear-gradient-2" x1="37.73" y1="62.29" x2="111.68" y2="62.29" gradientUnits="userSpaceOnUse"><stop offset="0" stop-color="#f58464"></stop><stop offset="1" stop-color="#ed1555"></stop></linearGradient><linearGradient id="linear-gradient-3" x1="3930.92" y1="993.68" x2="3966.99" y2="993.68" gradientTransform="translate(4074 893.02) rotate(-154.17) scale(1 -1)" gradientUnits="userSpaceOnUse"><stop offset="0" stop-color="#f391bc"></stop><stop offset="1" stop-color="#93268f"></stop></linearGradient><linearGradient id="linear-gradient-4" x1="3930.92" y1="996.96" x2="3959.18" y2="996.96" gradientTransform="translate(4074 893.02) rotate(-154.17) scale(1 -1)" gradientUnits="userSpaceOnUse"><stop offset="0" stop-color="#4ac7ee"></stop><stop offset=".14" stop-color="#48c4db"></stop><stop offset=".53" stop-color="#46bead"></stop><stop offset=".83" stop-color="#44bb90"></stop><stop offset="1" stop-color="#44ba86"></stop></linearGradient><linearGradient id="linear-gradient-5" x1="632.68" y1="-798.14" x2="695.64" y2="-798.14" gradientTransform="translate(-271.65 1055.24) rotate(-22.31)" gradientUnits="userSpaceOnUse"><stop offset="0" stop-color="#ffc912"></stop><stop offset="1" stop-color="#f26222"></stop></linearGradient><linearGradient id="linear-gradient-6" x1="632.68" y1="-797.98" x2="695.64" y2="-797.98" gradientTransform="translate(-271.65 1055.24) rotate(-22.31)" gradientUnits="userSpaceOnUse"><stop offset="0" stop-color="#bdd630"></stop><stop offset="1" stop-color="#20803f"></stop></linearGradient><linearGradient id="linear-gradient-7" x1="673.61" y1="-759.3" x2="706.59" y2="-759.3" gradientTransform="translate(-271.65 1055.24) rotate(-22.31)" gradientUnits="userSpaceOnUse"><stop offset="0" stop-color="#c4d934"></stop><stop offset=".52" stop-color="#fcf6b5"></stop><stop offset="1" stop-color="#c9db38"></stop></linearGradient><linearGradient id="linear-gradient-8" x1="632.68" y1="-796.91" x2="670.39" y2="-796.91" gradientTransform="translate(-271.65 1055.24) rotate(-22.31)" gradientUnits="userSpaceOnUse"><stop offset="0" stop-color="#008abd"></stop><stop offset="1" stop-color="#fbfeff"></stop></linearGradient></defs><g class="cls-7"><g id="Camada_2" data-name="Camada 2"><g id="Layer_1" data-name="Layer 1"><g><g><g><path class="cls-10" d="M37.73,100.89s1.47.11,3.76-.2c.83-.11,1.78-.28,2.8-.52,8.1-1.1,23.89-8.11,26.43-45.57,1.71-25.32,12.02-35.47,19.05-35.96,24.98-1.71,33.12,41.57.11,69.91-4.51,3.87-9.29,6.83-14.05,9.07h0c-8.75,3.95-22.01,7.33-38.11,3.27Z"></path><path class="cls-1" d="M37.73,100.89s1.47.11,3.76-.2c.1-.01.21-.03.32-.04.09-.01.19-.03.28-.04.38-.06.78-.13,1.2-.22.21-.04.42-.09.64-.14.11-.02.22-.05.33-.08,0,0,.02,0,.03,0,0,0,0,0,0,0,5.82-.79,15.6-4.63,21.59-20.61,33.24,4.12,55.05-43.51,35.75-57.7,14.72,10.41,15.22,43.55-11.75,66.7-4.51,3.87-9.29,6.83-14.05,9.07-8.75,3.94-22.01,7.33-38.11,3.27Z"></path><path class="cls-5" d="M58.05,102.43c-1.87.19-3.82.3-5.83.3,9.64-1.7,21.48-5.75,31.88-14.68,30.21-25.94,25.95-64.41,5.84-69.42,24.85-1.51,32.88,41.65-.05,69.92-4.51,3.87-9.29,6.83-14.05,9.07h0c-4.71,2.12-10.73,4.08-17.79,4.81Z"></path><path class="cls-4" d="M58.05,102.43c9.16-1.65,19.5-5.17,28.18-12.63,19.48-16.73,27.42-34.63,24.43-53.44,3.55,14.78-1.85,35.94-20.77,52.19-4.51,3.87-9.29,6.83-14.05,9.07-4.71,2.12-10.73,4.08-17.79,4.81Z"></path></g><g><path class="cls-6" d="M94.12,114.1s-1.96.02-4.99-.59c-1.1-.22-2.34-.52-3.68-.94-10.68-2.16-31.15-12.82-31.58-62.88C53.58,15.87,40.67,1.48,31.35.24-1.75-4.17-15.98,52.73,25.7,93.24c5.69,5.54,11.82,9.87,17.97,13.26h0c11.33,5.99,28.7,11.63,50.45,7.6Z"></path><path class="cls-9" d="M94.12,114.1s-1.96.02-4.99-.59c-.14-.03-.28-.06-.42-.09-.12-.03-.25-.05-.37-.08-.5-.11-1.03-.24-1.58-.39-.28-.07-.56-.15-.84-.24-.14-.04-.29-.09-.43-.13-.01,0-.02,0-.03-.01,0,0,0,0,0,0-7.67-1.55-20.39-7.5-27.11-29.26C13.79,85.96-11.47,20.74,15.32,3.5-5.08,16.1-8.36,60.14,25.7,93.24c5.69,5.54,11.82,9.87,17.97,13.26,11.33,5.99,28.7,11.63,50.45,7.6Z"></path><path class="cls-11" d="M66.97,114.42c2.48.42,5.06.72,7.74.89-12.69-3.08-28.13-9.48-41.26-22.25C-4.71,55.98,4,5.16,31.14.22-1.81-3.92-15.89,52.82,25.7,93.24c5.7,5.54,11.83,9.88,17.98,13.27h0c6.1,3.23,13.95,6.35,23.29,7.91Z"></path><path class="cls-3" d="M76.66,108.6c.25.15.5.29.76.43-2.02-1.19-4.08-2.67-6.09-4.49.02.02.04.04.06.06,1.6,1.53,3.4,2.87,5.28,4Z"></path><path class="cls-3" d="M68.42,101.61c-1.66-1.87-3.25-4.02-4.7-6.48.48.83.98,1.64,1.5,2.44.95,1.44,2.04,2.78,3.2,4.05Z"></path><path class="cls-8" d="M77.41,109.03c-.25-.14-.51-.28-.76-.43-1.88-1.13-3.68-2.47-5.28-4-.02-.02-.04-.04-.06-.06-.98-.89-1.96-1.87-2.9-2.94-1.16-1.27-2.26-2.61-3.2-4.05-.52-.79-1.02-1.61-1.5-2.44-.98-1.66-1.91-3.47-2.75-5.44h0c-2.33-5.29-3.97-10.97-5.08-16.57.04.26.07.45.1.6,1.34,8.4,3.98,17.08,8.49,24.2,2.78,4.39,6.59,8.11,10.76,11.04,4.11,2.89,9,4.21,13.9,4.56-3.1-.62-7.32-1.88-11.72-4.48Z"></path><path class="cls-12" d="M66.97,114.42c-12.05-2.97-25.53-8.55-36.5-19.21C5.86,71.3-3.29,46.8,2.17,22.04c-5.89,19.36-.37,47.98,23.53,71.2,5.7,5.54,11.83,9.88,17.98,13.27,6.1,3.23,13.95,6.35,23.29,7.91Z"></path></g></g><g><path class="cls-2" d="M129.72,50.44c-.18-.45-.13-.76.13-.95.27-.19.65-.28,1.16-.28h7.81c.5,0,.97.08,1.4.25.43.17.74.48.92.92l2.58,7.23c0,.08,0,.12.03.14.02.02.03.07.03.14l5.71,16.36,8.08-23.86c.18-.45.5-.76.97-.92.47-.17.95-.25,1.45-.25h7.16c1.08,0,1.47.41,1.18,1.23l-12.49,35.85c-.29.78-.68,1.3-1.18,1.54-.5.24-.95.36-1.35.36h-7.49c-.47,0-.98-.12-1.53-.36-.56-.24-.98-.76-1.27-1.54l-13.25-35.74-.05-.11Z"></path><path class="cls-2" d="M182.33,43.16c0,.49-.18.89-.54,1.2-.36.32-.79.48-1.29.48h-7.54c-.5,0-.93-.16-1.29-.48-.36-.32-.54-.72-.54-1.2v-7.23c0-.45.18-.84.54-1.18.36-.34.79-.5,1.29-.5h7.54c.5,0,.93.17,1.29.5.36.34.54.73.54,1.18v7.23ZM182.33,86.73c0,.45-.17.84-.51,1.18-.34.34-.76.5-1.27.5h-7.59c-.5,0-.93-.17-1.29-.5-.36-.34-.54-.73-.54-1.18v-35.85c0-.45.18-.84.54-1.18.36-.34.79-.5,1.29-.5h7.59c.5,0,.92.17,1.27.5.34.34.51.73.51,1.18v35.85Z"></path><path class="cls-2" d="M184.05,50.44c-.18-.45-.13-.76.13-.95.27-.19.65-.28,1.16-.28h7.81c.5,0,.97.08,1.4.25.43.17.74.48.92.92l2.58,7.23c0,.08,0,.12.03.14.02.02.03.07.03.14l5.71,16.36,8.08-23.86c.18-.45.5-.76.97-.92.47-.17.95-.25,1.45-.25h7.16c1.08,0,1.47.41,1.18,1.23l-12.49,35.85c-.29.78-.68,1.3-1.18,1.54-.5.24-.95.36-1.35.36h-7.49c-.47,0-.98-.12-1.53-.36-.56-.24-.98-.76-1.27-1.54l-13.25-35.74-.05-.11Z"></path><path class="cls-2" d="M261.38,86.79c0,.52-.05.92-.16,1.18-.11.26-.36.41-.75.45v.06h-2.96c-1.9,0-3.35-.35-4.33-1.06-.99-.71-1.84-1.79-2.56-3.25-.36,1.05-.9,1.85-1.62,2.41-.72.56-1.61.97-2.67,1.23-1.06.26-2.29.42-3.69.48-1.4.06-2.96.08-4.68.08-2.8,0-5.08-.3-6.84-.9-1.76-.6-3.13-1.42-4.12-2.46-.99-1.05-1.67-2.28-2.05-3.7-.38-1.42-.57-2.95-.57-4.59,0-2.65.46-4.83,1.37-6.53.92-1.7,2.32-3.03,4.2-4.01,1.88-.97,4.28-1.64,7.19-2.02,2.91-.37,6.37-.56,10.39-.56h1.45c0-.82-.08-1.56-.24-2.21-.16-.65-.49-1.19-1-1.6-.5-.41-1.23-.73-2.18-.95-.95-.22-2.2-.34-3.74-.34s-2.92.16-4.23.48c-1.31.32-2.5.7-3.58,1.15-.57.22-1.13.49-1.67.78-.54.3-1.06.6-1.56.9l-1.08.67c-.04.08-.13.15-.27.22-.04.04-.06.06-.08.06s-.05.02-.08.06l-.05.06c-.29.15-.54.19-.75.11-.22-.07-.45-.32-.7-.73l-2.8-5.43c-.29-.45-.43-.83-.43-1.15s.2-.62.59-.92l.48-.34c1.83-1.31,3.65-2.31,5.47-3,1.81-.69,3.8-1.2,5.95-1.54,1.83-.34,3.79-.5,5.87-.5,3.27,0,5.91.28,7.94.84,2.03.56,3.62,1.44,4.77,2.63,1.15,1.2,1.93,2.74,2.34,4.62.41,1.89.62,4.15.62,6.81v13.28c0,.45.06.78.19,1.01.13.22.31.37.57.45.25.08.63.11,1.13.11v.06c.29.04.51.15.67.34.16.19.24.52.24,1.01v6.27ZM249,70.77h-.86c-3.2,0-5.73.08-7.59.22-1.87.15-3.3.42-4.31.81-1.01.39-1.65.92-1.94,1.57-.29.65-.43,1.48-.43,2.49,0,1.42.44,2.59,1.32,3.5.88.92,2.47,1.37,4.77,1.37,3.16,0,5.46-.74,6.89-2.21,1.44-1.47,2.15-3.59,2.15-6.36v-1.4Z"></path><path class="cls-2" d="M267.56,84.17v-48.12c.04-.45.22-.83.54-1.15.32-.32.74-.48,1.24-.48h7.7c.5,0,.92.16,1.27.48.34.32.53.7.57,1.15v15.07c1.4-.56,2.99-.99,4.77-1.29,1.78-.3,3.8-.45,6.06-.45,3.8,0,7.06.43,9.77,1.29,2.71.86,4.91,2.13,6.6,3.81,1.69,1.68,2.93,3.74,3.72,6.19.79,2.45,1.18,5.26,1.18,8.43s-.38,5.98-1.13,8.43c-.75,2.45-1.97,4.49-3.66,6.13-1.69,1.64-3.87,2.89-6.54,3.75-2.67.86-5.91,1.29-9.72,1.29-2.26,0-4.32-.21-6.17-.64-1.85-.43-3.49-.94-4.93-1.54v1.18c0,.45-.17.71-.51.78-.34.08-.76.11-1.27.11h-7.7c-.5,0-.93-.16-1.29-.48-.36-.32-.54-.72-.54-1.2l.05-2.74ZM279.79,69.38c0,1.61.15,3.05.46,4.34.3,1.29.83,2.39,1.59,3.3.75.92,1.77,1.62,3.04,2.1,1.27.49,2.88.73,4.82.73s3.54-.24,4.82-.73c1.27-.48,2.29-1.19,3.04-2.1.75-.91,1.28-2.02,1.59-3.3.3-1.29.46-2.74.46-4.34s-.15-3.07-.46-4.4c-.31-1.33-.83-2.46-1.59-3.42s-1.77-1.69-3.04-2.21c-1.27-.52-2.88-.78-4.82-.78s-3.55.26-4.82.78c-1.27.52-2.29,1.26-3.04,2.21-.75.95-1.28,2.09-1.59,3.42-.31,1.33-.46,2.79-.46,4.4Z"></path><path class="cls-2" d="M333.85,49.39c2.91,0,5.38.28,7.43.84,2.05.56,3.73,1.35,5.06,2.38,1.33,1.03,2.36,2.25,3.1,3.67.74,1.42,1.27,3,1.62,4.73.34,1.74.53,3.58.57,5.55.04,1.96.04,3.99,0,6.08h-27.79c.14,1.12.42,2.15.83,3.08.41.93,1,1.74,1.78,2.41.77.67,1.76,1.19,2.96,1.54,1.2.36,2.7.53,4.5.53,1.54,0,2.84-.07,3.88-.22,1.04-.15,1.96-.36,2.75-.64.79-.28,1.51-.62,2.15-1.01.65-.39,1.35-.85,2.1-1.37.43-.34.85-.48,1.27-.45.41.04.76.26,1.05.67l3.12,4.2c.47.6.75,1.04.86,1.32.11.28-.2.68-.92,1.2-.07.08-.14.13-.22.17-1.26.9-2.43,1.63-3.53,2.21-1.1.58-2.25,1.05-3.47,1.4-1.22.36-2.55.61-3.98.76-1.44.15-3.12.22-5.06.22-4.31,0-7.82-.52-10.53-1.57-2.71-1.05-4.82-2.46-6.33-4.26-1.51-1.79-2.54-3.87-3.1-6.25-.56-2.37-.83-4.9-.83-7.59s.28-5.11.83-7.48c.56-2.37,1.6-4.45,3.12-6.25,1.53-1.79,3.63-3.22,6.33-4.29,2.69-1.06,6.17-1.6,10.45-1.6ZM341.55,65.18c-.07-1.08-.22-2.08-.43-3-.22-.91-.6-1.7-1.16-2.35-.56-.65-1.35-1.17-2.37-1.54-1.02-.37-2.4-.56-4.12-.56s-3.16.18-4.31.53c-1.15.36-2.1.85-2.85,1.48-.75.64-1.32,1.41-1.7,2.32-.38.92-.64,1.95-.78,3.11h17.72Z"></path><path class="cls-2" d="M376.07,49.16c2.8,0,5.06.38,6.78,1.15,1.72.77,3.06,1.85,4.01,3.25.95,1.4,1.6,3.09,1.94,5.07.34,1.98.51,4.16.51,6.55v21.79c0,.45-.17.84-.51,1.18-.34.34-.76.5-1.27.5h-6.62c-.5,0-.92-.17-1.27-.5-.34-.34-.51-.73-.51-1.18v-19.66c0-1.16-.06-2.24-.19-3.25-.13-1.01-.41-1.87-.86-2.58-.45-.71-1.12-1.27-2.02-1.68-.9-.41-2.12-.62-3.66-.62-1.8,0-3.23.21-4.31.62-1.08.41-1.91,1-2.5,1.76-.59.77-.99,1.67-1.18,2.72-.2,1.05-.3,2.2-.3,3.47v19.21c0,.45-.17.84-.51,1.18-.34.34-.76.5-1.27.5h-6.68c-.5,0-.92-.17-1.27-.5-.34-.34-.51-.73-.51-1.18v-36.3c.07-.41.28-.76.62-1.04.34-.28.73-.42,1.16-.42h6.68c.5,0,.92.16,1.27.48.34.32.51.72.51,1.2v2.35c.47-.56.9-1.09,1.29-1.6.39-.5.98-.93,1.75-1.29.77-.35,1.84-.64,3.2-.87,1.36-.22,3.27-.34,5.71-.34Z"></path><path class="cls-2" d="M429.67,49.95c.13.34.04.73-.24,1.18l-12.87,17.14,12.82,18.88c.29.49.37.89.24,1.2-.13.32-.44.48-.94.48h-8.13c-.9,0-1.5-.12-1.8-.36-.31-.24-.67-.68-1.1-1.32l-7.11-10.75-7.11,10.75c-.25.34-.46.61-.62.81-.16.21-.33.37-.51.5-.18.13-.4.22-.67.28s-.64.08-1.1.08h-8.45c-.5,0-.82-.16-.94-.48-.13-.32-.05-.72.24-1.2l13.14-18.88-13.19-17.14c-.32-.45-.42-.84-.3-1.18.13-.34.44-.5.94-.5h8.13c.43,0,.78.03,1.05.08.27.06.5.16.7.31.2.15.39.33.57.53.18.21.38.46.59.76l7.59,9.58,7.48-9.58c.29-.34.52-.62.7-.84.18-.22.36-.4.54-.53.18-.13.39-.21.65-.25.25-.04.59-.06,1.02-.06h7.75c.5,0,.82.17.94.5Z"></path></g></g></g></g></g></svg>