<svg xmlns="http://www.w3.org/2000/svg" width="238" height="197" viewBox="0 0 238 197" fill="none"><path d="M100.27 123.728C100.27 123.728 102.073 123.863 104.881 123.483C105.899 123.348 107.064 123.139 108.315 122.845C118.249 121.496 137.613 112.899 140.728 66.9602C142.825 35.909 155.468 23.4615 164.09 22.8606C194.724 20.7635 204.706 73.84 164.224 108.595C158.694 113.341 152.832 116.971 146.994 119.718C136.264 124.562 120.002 128.707 100.258 123.728H100.27Z" fill="url(#paint0_linear_1162_2815)"></path><path d="M100.27 123.728C100.27 123.728 102.073 123.863 104.881 123.483C105.004 123.471 105.139 123.446 105.274 123.434C105.384 123.422 105.507 123.397 105.617 123.385C106.083 123.311 106.574 123.225 107.089 123.115C107.346 123.066 107.604 123.005 107.874 122.943C108.008 122.919 108.143 122.882 108.278 122.845C108.278 122.845 108.303 122.845 108.315 122.845C115.452 121.876 127.446 117.167 134.792 97.57C175.556 102.623 202.303 44.2115 178.634 26.8096C196.686 39.5759 197.299 80.2172 164.224 108.607C158.694 113.353 152.832 116.983 146.994 119.73C136.264 124.562 120.002 128.719 100.258 123.74L100.27 123.728Z" fill="url(#paint1_linear_1162_2815)"></path><path d="M125.19 125.617C122.896 125.85 120.505 125.985 118.04 125.985C129.862 123.9 144.382 118.933 157.136 107.982C194.184 76.1703 188.96 28.9926 164.298 22.8486C194.773 20.9968 204.62 73.9261 164.237 108.595C158.706 113.341 152.844 116.971 147.006 119.718C141.23 122.318 133.848 124.722 125.19 125.617Z" fill="url(#paint2_linear_1162_2815)"></path><path opacity="0.9" d="M125.19 125.616C136.423 123.593 149.103 119.276 159.748 110.128C183.637 89.6107 193.375 67.659 189.708 44.5913C194.061 62.7168 187.439 88.6664 164.237 108.595C158.706 113.341 152.844 116.971 147.006 119.718C141.23 122.317 133.848 124.721 125.19 125.616Z" fill="url(#paint3_linear_1162_2815)"></path><path d="M169.424 139.929C169.424 139.929 167.021 139.953 163.305 139.205C161.956 138.935 160.435 138.567 158.792 138.052C145.694 135.403 120.591 122.331 120.064 60.9394C119.708 19.4642 103.876 1.81702 92.4461 0.296349C51.8539 -5.11186 34.4029 64.6675 85.5172 114.347C92.4952 121.141 100.013 126.451 107.555 130.608C121.449 137.954 142.751 144.871 169.424 139.929Z" fill="url(#paint4_linear_1162_2815)"></path><path d="M169.424 139.928C169.424 139.928 167.021 139.953 163.305 139.205C163.133 139.168 162.961 139.131 162.79 139.094C162.642 139.058 162.483 139.033 162.336 138.996C161.723 138.861 161.073 138.702 160.398 138.518C160.055 138.432 159.711 138.334 159.368 138.224C159.196 138.175 159.012 138.113 158.841 138.064C158.829 138.064 158.816 138.064 158.804 138.052C149.398 136.151 133.799 128.854 125.558 102.169C70.9114 105.419 39.9337 25.4362 72.7877 4.29395C47.7701 19.746 43.7477 73.7545 85.5172 114.347C92.4952 121.141 100.013 126.451 107.555 130.608C121.449 137.954 142.751 144.871 169.424 139.928Z" fill="url(#paint5_linear_1162_2815)"></path><path d="M136.129 140.321C139.17 140.836 142.334 141.204 145.621 141.412C130.058 137.635 111.123 129.787 95.0214 114.126C48.2239 68.6529 58.9054 6.32975 92.1886 0.271578C51.7803 -4.80552 34.5133 64.7777 85.5172 114.347C92.5074 121.141 100.025 126.463 107.567 130.62C115.048 134.582 124.675 138.408 136.129 140.321Z" fill="#CDDC29"></path><path d="M148.932 133.711C148.625 133.539 148.306 133.367 148 133.183C145.694 131.798 143.487 130.154 141.525 128.278C141.5 128.253 141.476 128.229 141.451 128.204C140.249 127.113 139.048 125.911 137.895 124.599C136.472 123.041 135.123 121.398 133.97 119.632C133.333 118.663 132.72 117.658 132.131 116.64C130.929 114.604 129.789 112.385 128.758 109.969C125.901 103.481 123.89 96.5155 122.529 89.6479C122.578 89.9668 122.614 90.1998 122.651 90.3838C124.295 100.685 127.532 111.33 133.063 120.061C136.472 125.445 141.145 130.007 146.258 133.6C151.299 137.145 157.296 138.763 163.305 139.193C159.503 138.432 154.328 136.887 148.932 133.698V133.711Z" fill="url(#paint6_linear_1162_2815)"></path><path opacity="0.63" d="M136.129 140.321C121.351 136.678 104.82 129.835 91.3669 116.762C61.1864 87.4403 49.9653 57.3947 56.6612 27.0303C49.438 50.7724 56.2075 85.8706 85.5173 114.346C92.5075 121.14 100.025 126.463 107.567 130.62C115.048 134.581 124.675 138.408 136.129 140.321Z" fill="url(#paint7_linear_1162_2815)"></path><path d="M0.0847593 165.841C-0.0579859 165.484 -0.0183306 165.238 0.187857 165.087C0.401975 164.937 0.703316 164.865 1.10776 164.865H7.30132C7.69784 164.865 8.07056 164.929 8.41156 165.063C8.75256 165.198 8.9984 165.444 9.14114 165.793L11.1872 171.527C11.1872 171.59 11.1872 171.622 11.2109 171.638C11.2268 171.654 11.2347 171.693 11.2347 171.749L15.7629 184.723L22.1706 165.801C22.3134 165.444 22.5671 165.198 22.9398 165.071C23.3126 164.937 23.6932 164.873 24.0897 164.873H29.7678C30.6243 164.873 30.9336 165.198 30.7036 165.849L20.7987 194.279C20.5687 194.897 20.2594 195.31 19.8629 195.5C19.4664 195.69 19.1095 195.785 18.7923 195.785H12.8525C12.4798 195.785 12.0753 195.69 11.6392 195.5C11.1951 195.31 10.862 194.897 10.632 194.279L0.124413 165.936L0.0847593 165.849V165.841Z" fill="url(#paint8_linear_1162_2815)"></path><path d="M41.806 160.067C41.806 160.456 41.6632 160.773 41.3777 161.019C41.0923 161.273 40.7513 161.4 40.3547 161.4H34.3753C33.9788 161.4 33.6378 161.273 33.3523 161.019C33.0668 160.765 32.9241 160.448 32.9241 160.067V154.334C32.9241 153.977 33.0668 153.668 33.3523 153.398C33.6378 153.128 33.9788 153.001 34.3753 153.001H40.3547C40.7513 153.001 41.0923 153.136 41.3777 153.398C41.6632 153.668 41.806 153.977 41.806 154.334V160.067ZM41.806 194.62C41.806 194.976 41.6712 195.286 41.4015 195.555C41.1319 195.825 40.7988 195.952 40.3944 195.952H34.3753C33.9788 195.952 33.6378 195.817 33.3523 195.555C33.0668 195.286 32.9241 194.976 32.9241 194.62V166.19C32.9241 165.833 33.0668 165.523 33.3523 165.254C33.6378 164.984 33.9788 164.857 34.3753 164.857H40.3944C40.7909 164.857 41.124 164.992 41.4015 165.254C41.6712 165.523 41.806 165.833 41.806 166.19V194.62Z" fill="url(#paint9_linear_1162_2815)"></path><path d="M43.17 165.841C43.0272 165.484 43.0669 165.238 43.2731 165.087C43.4872 164.937 43.7885 164.865 44.193 164.865H50.3865C50.783 164.865 51.1558 164.929 51.4968 165.063C51.8378 165.198 52.0836 165.444 52.2264 165.793L54.2724 171.527C54.2724 171.59 54.2724 171.622 54.2962 171.638C54.312 171.654 54.3199 171.693 54.3199 171.749L58.8481 184.723L65.2558 165.801C65.3986 165.444 65.6523 165.198 66.025 165.071C66.3978 164.937 66.7784 164.873 67.1749 164.873H72.853C73.7095 164.873 74.0188 165.198 73.7888 165.849L63.8839 194.279C63.6539 194.897 63.3446 195.31 62.9481 195.5C62.5516 195.69 62.1947 195.785 61.8775 195.785H55.9377C55.565 195.785 55.1606 195.69 54.7244 195.5C54.2803 195.31 53.9472 194.897 53.7173 194.279L43.2096 165.936L43.17 165.849V165.841Z" fill="url(#paint10_linear_1162_2815)"></path><path d="M104.495 194.667C104.495 195.08 104.455 195.397 104.368 195.603C104.281 195.809 104.083 195.928 103.773 195.96V196.007H101.426C99.9191 196.007 98.7692 195.73 97.992 195.167C97.2069 194.604 96.5329 193.747 95.9619 192.589C95.6764 193.422 95.2482 194.057 94.6772 194.501C94.1062 194.945 93.4004 195.27 92.5598 195.476C91.7192 195.682 90.7438 195.809 89.6335 195.857C88.5233 195.904 87.2862 195.92 85.9222 195.92C83.7017 195.92 81.8936 195.682 80.4978 195.206C79.1021 194.731 78.0157 194.08 77.2306 193.256C76.4455 192.423 75.9062 191.448 75.6049 190.321C75.3035 189.195 75.1528 187.982 75.1528 186.681C75.1528 184.58 75.5176 182.851 76.2393 181.503C76.9689 180.155 78.0791 179.1 79.57 178.323C81.0609 177.554 82.9642 177.022 85.2719 176.721C87.5796 176.428 90.3235 176.277 93.5114 176.277H94.6613C94.6613 175.627 94.5979 175.04 94.471 174.524C94.3441 174.009 94.0824 173.581 93.678 173.255C93.2815 172.93 92.7025 172.677 91.9492 172.502C91.1958 172.328 90.2045 172.232 88.9833 172.232C87.762 172.232 86.6676 172.359 85.6287 172.613C84.5899 172.867 83.6462 173.168 82.7897 173.525C82.3377 173.7 81.8936 173.914 81.4653 174.144C81.0371 174.382 80.6247 174.619 80.2282 174.857L79.3717 175.389C79.34 175.452 79.2686 175.508 79.1576 175.563C79.1259 175.595 79.11 175.611 79.0942 175.611C79.0783 175.611 79.0545 175.627 79.0307 175.658L78.9911 175.706C78.7611 175.825 78.5629 175.857 78.3963 175.793C78.2218 175.738 78.0395 175.539 77.8412 175.214L75.6207 170.908C75.3907 170.551 75.2797 170.25 75.2797 169.996C75.2797 169.742 75.4383 169.504 75.7476 169.266L76.1283 168.997C77.5795 167.958 79.0228 167.165 80.4661 166.618C81.9015 166.071 83.4796 165.666 85.1846 165.397C86.6359 165.127 88.1902 165 89.8397 165C92.4329 165 94.5265 165.222 96.1364 165.666C97.7462 166.11 99.0071 166.808 99.9191 167.752C100.831 168.703 101.45 169.925 101.775 171.416C102.1 172.914 102.266 174.707 102.266 176.816V187.348C102.266 187.704 102.314 187.966 102.417 188.149C102.52 188.323 102.663 188.442 102.869 188.505C103.067 188.569 103.369 188.593 103.765 188.593V188.64C103.995 188.672 104.17 188.759 104.297 188.91C104.424 189.06 104.487 189.322 104.487 189.711V194.683L104.495 194.667ZM94.6772 181.963H93.9952C91.4575 181.963 89.4511 182.026 87.9761 182.137C86.4931 182.256 85.3591 182.47 84.5582 182.78C83.7572 183.089 83.2497 183.509 83.0197 184.025C82.7897 184.54 82.6787 185.198 82.6787 185.999C82.6787 187.125 83.0276 188.053 83.7255 188.775C84.4233 189.505 85.6843 189.861 87.5082 189.861C90.0142 189.861 91.8382 189.275 92.9722 188.109C94.1141 186.943 94.6772 185.262 94.6772 183.065V181.955V181.963Z" fill="url(#paint11_linear_1162_2815)"></path><path d="M109.396 192.59V154.429C109.428 154.072 109.57 153.771 109.824 153.517C110.078 153.264 110.411 153.137 110.807 153.137H116.914C117.31 153.137 117.643 153.264 117.921 153.517C118.191 153.771 118.341 154.072 118.373 154.429V166.38C119.483 165.936 120.744 165.595 122.156 165.357C123.567 165.119 125.169 165 126.961 165C129.975 165 132.56 165.341 134.709 166.023C136.858 166.705 138.603 167.713 139.943 169.045C141.284 170.377 142.267 172.011 142.893 173.954C143.52 175.897 143.829 178.125 143.829 180.639C143.829 183.153 143.528 185.381 142.933 187.324C142.338 189.267 141.371 190.885 140.031 192.185C138.69 193.486 136.962 194.477 134.844 195.159C132.727 195.841 130.157 196.182 127.136 196.182C125.344 196.182 123.71 196.016 122.243 195.675C120.776 195.334 119.475 194.929 118.333 194.454V195.389C118.333 195.746 118.198 195.952 117.929 196.008C117.659 196.071 117.326 196.095 116.922 196.095H110.815C110.419 196.095 110.078 195.968 109.792 195.714C109.507 195.461 109.364 195.143 109.364 194.763L109.404 192.59H109.396ZM119.095 180.861C119.095 182.138 119.214 183.28 119.459 184.303C119.697 185.326 120.118 186.198 120.72 186.92C121.315 187.649 122.124 188.204 123.131 188.585C124.138 188.974 125.415 189.164 126.954 189.164C128.492 189.164 129.761 188.974 130.776 188.585C131.783 188.204 132.592 187.641 133.187 186.92C133.781 186.198 134.202 185.318 134.448 184.303C134.686 183.28 134.812 182.13 134.812 180.861C134.812 179.592 134.693 178.426 134.448 177.372C134.202 176.317 133.789 175.421 133.187 174.66C132.584 173.898 131.783 173.319 130.776 172.907C129.769 172.495 128.492 172.288 126.954 172.288C125.415 172.288 124.138 172.495 123.131 172.907C122.124 173.319 121.315 173.906 120.72 174.66C120.126 175.413 119.705 176.317 119.459 177.372C119.214 178.426 119.095 179.584 119.095 180.861Z" fill="url(#paint12_linear_1162_2815)"></path><path d="M161.966 165.009C164.273 165.009 166.232 165.231 167.858 165.675C169.484 166.119 170.816 166.745 171.871 167.562C172.925 168.379 173.742 169.346 174.329 170.473C174.916 171.599 175.336 172.852 175.614 174.224C175.883 175.603 176.034 177.063 176.066 178.625C176.097 180.179 176.097 181.789 176.066 183.446H154.027C154.138 184.335 154.36 185.151 154.686 185.889C155.011 186.626 155.479 187.269 156.097 187.8C156.708 188.332 157.493 188.744 158.445 189.021C159.396 189.307 160.586 189.442 162.013 189.442C163.234 189.442 164.265 189.386 165.09 189.267C165.915 189.148 166.644 188.982 167.271 188.76C167.897 188.538 168.468 188.268 168.976 187.959C169.491 187.65 170.047 187.285 170.641 186.872C170.982 186.603 171.315 186.492 171.648 186.515C171.974 186.547 172.251 186.722 172.481 187.047L174.955 190.378C175.328 190.853 175.55 191.202 175.637 191.424C175.725 191.646 175.479 191.964 174.908 192.376C174.852 192.439 174.797 192.479 174.733 192.511C173.734 193.224 172.806 193.803 171.934 194.263C171.062 194.723 170.15 195.096 169.182 195.374C168.215 195.659 167.16 195.857 166.026 195.976C164.884 196.095 163.552 196.151 162.013 196.151C158.595 196.151 155.812 195.738 153.663 194.906C151.513 194.073 149.84 192.955 148.643 191.527C147.445 190.108 146.628 188.458 146.184 186.571C145.74 184.692 145.526 182.685 145.526 180.552C145.526 178.419 145.748 176.5 146.184 174.62C146.628 172.741 147.453 171.091 148.659 169.664C149.872 168.244 151.537 167.11 153.678 166.262C155.812 165.421 158.571 164.993 161.966 164.993V165.009ZM168.072 177.53C168.016 176.674 167.897 175.881 167.731 175.151C167.556 174.43 167.255 173.803 166.811 173.288C166.367 172.772 165.74 172.36 164.932 172.066C164.123 171.773 163.028 171.622 161.664 171.622C160.3 171.622 159.158 171.765 158.246 172.043C157.334 172.328 156.581 172.717 155.986 173.216C155.391 173.724 154.939 174.335 154.638 175.056C154.337 175.786 154.13 176.603 154.019 177.523H168.072V177.53Z" fill="url(#paint13_linear_1162_2815)"></path><path d="M195.447 164.826C197.668 164.826 199.46 165.127 200.824 165.738C202.188 166.348 203.251 167.205 204.004 168.315C204.757 169.425 205.273 170.765 205.543 172.336C205.812 173.906 205.947 175.635 205.947 177.53V194.81C205.947 195.167 205.812 195.476 205.543 195.746C205.273 196.015 204.94 196.142 204.535 196.142H199.286C198.889 196.142 198.556 196.007 198.278 195.746C198.009 195.476 197.874 195.167 197.874 194.81V179.219C197.874 178.299 197.826 177.443 197.723 176.642C197.62 175.841 197.398 175.159 197.041 174.596C196.684 174.033 196.153 173.589 195.439 173.263C194.726 172.938 193.758 172.772 192.537 172.772C191.109 172.772 189.975 172.938 189.119 173.263C188.262 173.589 187.604 174.056 187.136 174.659C186.668 175.27 186.351 175.983 186.201 176.816C186.042 177.649 185.963 178.561 185.963 179.568V194.802C185.963 195.159 185.828 195.468 185.558 195.738C185.289 196.007 184.956 196.134 184.551 196.134H179.254C178.857 196.134 178.524 195.999 178.246 195.738C177.977 195.468 177.842 195.159 177.842 194.802V166.015C177.898 165.69 178.064 165.412 178.334 165.19C178.603 164.968 178.913 164.857 179.254 164.857H184.551C184.948 164.857 185.281 164.984 185.558 165.238C185.828 165.492 185.963 165.809 185.963 166.19V168.053C186.335 167.609 186.676 167.189 186.986 166.784C187.295 166.388 187.763 166.047 188.373 165.761C188.984 165.484 189.833 165.254 190.911 165.071C191.99 164.897 193.504 164.802 195.439 164.802L195.447 164.826Z" fill="url(#paint14_linear_1162_2815)"></path><path d="M237.954 165.452C238.057 165.722 237.985 166.031 237.763 166.388L227.557 179.981L237.724 194.953C237.954 195.342 238.017 195.659 237.914 195.905C237.811 196.158 237.565 196.285 237.169 196.285H230.721C230.008 196.285 229.532 196.19 229.294 196C229.048 195.809 228.763 195.46 228.422 194.953L222.783 186.428L217.145 194.953C216.946 195.223 216.78 195.437 216.653 195.595C216.526 195.762 216.391 195.889 216.249 195.992C216.106 196.095 215.931 196.166 215.717 196.214C215.503 196.261 215.21 196.277 214.845 196.277H208.144C207.747 196.277 207.494 196.15 207.398 195.897C207.295 195.643 207.359 195.326 207.589 194.945L218.009 179.973L207.549 166.38C207.295 166.023 207.216 165.714 207.311 165.444C207.414 165.175 207.66 165.048 208.057 165.048H214.504C214.845 165.048 215.122 165.072 215.337 165.111C215.551 165.159 215.733 165.238 215.892 165.357C216.05 165.476 216.201 165.619 216.344 165.777C216.487 165.944 216.645 166.142 216.812 166.38L222.831 173.977L228.763 166.38C228.993 166.111 229.175 165.888 229.318 165.714C229.46 165.54 229.603 165.397 229.746 165.294C229.889 165.191 230.055 165.127 230.261 165.095C230.46 165.064 230.729 165.048 231.07 165.048H237.216C237.613 165.048 237.867 165.183 237.962 165.444L237.954 165.452Z" fill="url(#paint15_linear_1162_2815)"></path><defs><linearGradient id="paint0_linear_1162_2815" x1="178.907" y1="94.1891" x2="126.784" y2="68.9584" gradientUnits="userSpaceOnUse"><stop stop-color="#F1645C"></stop><stop offset="1" stop-color="#CF2027"></stop></linearGradient><linearGradient id="paint1_linear_1162_2815" x1="100.27" y1="76.391" x2="190.959" y2="76.391" gradientUnits="userSpaceOnUse"><stop stop-color="#F58464"></stop><stop offset="1" stop-color="#ED1555"></stop></linearGradient><linearGradient id="paint2_linear_1162_2815" x1="180.152" y1="91.6175" x2="140.337" y2="72.3444" gradientUnits="userSpaceOnUse"><stop stop-color="#F391BC"></stop><stop offset="1" stop-color="#93268F"></stop></linearGradient><linearGradient id="paint3_linear_1162_2815" x1="178.399" y1="95.2376" x2="147.205" y2="80.1376" gradientUnits="userSpaceOnUse"><stop stop-color="#4AC7EE"></stop><stop offset="0.14" stop-color="#48C4DB"></stop><stop offset="0.53" stop-color="#46BEAD"></stop><stop offset="0.83" stop-color="#44BB90"></stop><stop offset="1" stop-color="#44BA86"></stop></linearGradient><linearGradient id="paint4_linear_1162_2815" x1="67.0994" y1="94.0372" x2="138.531" y2="64.7265" gradientUnits="userSpaceOnUse"><stop stop-color="#FFC912"></stop><stop offset="1" stop-color="#F26222"></stop></linearGradient><linearGradient id="paint5_linear_1162_2815" x1="67.1739" y1="94.2184" x2="138.605" y2="64.9077" gradientUnits="userSpaceOnUse"><stop stop-color="#BDD630"></stop><stop offset="1" stop-color="#20803F"></stop></linearGradient><linearGradient id="paint6_linear_1162_2815" x1="131.618" y1="119.048" x2="169.036" y2="103.694" gradientUnits="userSpaceOnUse"><stop stop-color="#C4D934"></stop><stop offset="0.52" stop-color="#FCF6B5"></stop><stop offset="1" stop-color="#C9DB38"></stop></linearGradient><linearGradient id="paint7_linear_1162_2815" x1="67.6721" y1="95.4321" x2="110.456" y2="77.8764" gradientUnits="userSpaceOnUse"><stop stop-color="#008ABD"></stop><stop offset="1" stop-color="#FBFEFF"></stop></linearGradient><linearGradient id="paint8_linear_1162_2815" x1="15.3902" y1="164.857" x2="15.3902" y2="195.777" gradientUnits="userSpaceOnUse"><stop stop-color="#F1645C"></stop><stop offset="1" stop-color="#CF2027"></stop></linearGradient><linearGradient id="paint9_linear_1162_2815" x1="37.365" y1="153.001" x2="37.365" y2="195.96" gradientUnits="userSpaceOnUse"><stop stop-color="#F1645C"></stop><stop offset="1" stop-color="#CF2027"></stop></linearGradient><linearGradient id="paint10_linear_1162_2815" x1="58.4754" y1="164.857" x2="58.4754" y2="195.777" gradientUnits="userSpaceOnUse"><stop stop-color="#F1645C"></stop><stop offset="1" stop-color="#CF2027"></stop></linearGradient><linearGradient id="paint11_linear_1162_2815" x1="89.8239" y1="164.992" x2="89.8239" y2="195.999" gradientUnits="userSpaceOnUse"><stop stop-color="#F1645C"></stop><stop offset="1" stop-color="#CF2027"></stop></linearGradient><linearGradient id="paint12_linear_1162_2815" x1="126.589" y1="153.145" x2="126.589" y2="196.19" gradientUnits="userSpaceOnUse"><stop stop-color="#BCBEC0"></stop><stop offset="1" stop-color="#808285"></stop></linearGradient><linearGradient id="paint13_linear_1162_2815" x1="160.8" y1="165.009" x2="160.8" y2="196.143" gradientUnits="userSpaceOnUse"><stop stop-color="#BCBEC0"></stop><stop offset="1" stop-color="#808285"></stop></linearGradient><linearGradient id="paint14_linear_1162_2815" x1="191.902" y1="164.826" x2="191.902" y2="196.142" gradientUnits="userSpaceOnUse"><stop stop-color="#BCBEC0"></stop><stop offset="1" stop-color="#808285"></stop></linearGradient><linearGradient id="paint15_linear_1162_2815" x1="222.625" y1="165.048" x2="222.625" y2="196.277" gradientUnits="userSpaceOnUse"><stop stop-color="#BCBEC0"></stop><stop offset="1" stop-color="#808285"></stop></linearGradient></defs></svg>