<svg width="2934" height="1179" viewBox="0 0 2934 1179" fill="none" xmlns="http://www.w3.org/2000/svg">
<path d="M677.026 0.79113C743.814 -4.34813 816.716 16.0852 876.415 46.572C1004.32 111.886 1093.53 232.798 1138.91 366.98C1164.34 438.85 1162.14 505.107 1151.88 578.472C1141.94 649.545 1127.64 699.129 1094.28 762.907C1016.83 910.979 897.739 1033.09 757.226 1122.57C728.241 1141.02 697.326 1161.68 665.05 1173.58C623.906 1188.21 555.023 1163.76 517.526 1144.3C425.825 1093.3 342.071 992.917 283.724 907.572C252.711 862.208 222.644 814.729 186.211 773.461C169.782 754.851 151.765 738.481 131.818 723.917C108.65 707 83.0757 691.822 60.8143 674.056C34.9942 653.451 19.5185 631.861 9.32771 600.536C5.43782 588.58 1.59331 580.969 0.412282 567.622C-3.53006 523.066 21.427 479.118 48.4877 445.987C89.4034 395.892 142.424 360.424 195.191 324.23C228.086 301.667 256.218 280.705 286.769 255.128C358.387 195.172 414.985 117.577 494.008 66.9402C523.81 47.8435 551.962 35.9266 585.065 24.5147C601.832 18.7345 614.526 12.1387 633.077 7.91663C649.833 4.10307 659.793 2.5205 677.026 0.79113ZM518.767 1115.25C551.414 1133.96 615.635 1160.6 653.509 1150.14C677.31 1143.57 715.966 1118.3 737.89 1104.41C901.735 1000.63 1047.43 845.362 1109.84 658.92C1117.74 635.323 1121.37 611.033 1124.66 586.573C1135.41 521.472 1139.47 459.951 1120.51 395.111C1082.83 266.252 999.478 144.949 881.032 78.2906C819.974 43.9278 747.522 21.2726 677.565 26.5797C637.851 30.313 627.943 36.2649 592.246 49.2762C558.435 61.5998 536.99 69.759 505.671 90.1529C450.981 125.765 407.82 174.192 362.302 220.121C343.31 239.225 323.549 257.548 303.067 275.044C274.42 299.425 245.736 320.492 214.83 341.926C163.629 377.436 109.903 411.989 69.8525 460.581C47.3795 487.847 22.5723 528.13 26.0219 565.245C26.9696 575.442 30.5216 582.606 33.4391 591.581C42.3407 618.966 55.0292 636.985 77.824 654.771C95.4387 668.515 115.471 681.28 134.146 694.096C159.302 711.36 180.351 728.753 201.104 751.501C238.774 792.793 269.16 840.708 300.703 886.805C360.088 973.593 429.023 1058.33 518.767 1115.25Z" fill="white"/>
<path d="M693.024 171.865C733.29 168.636 773.775 174.229 811.658 188.252C894.363 218.871 966.62 290.83 1003.52 370.5C1041.54 452.603 1033.22 531.937 1018.39 617.877C1011.75 656.371 1007.19 684.618 993.128 721.732C952.8 828.213 874.147 915.88 785.042 984.672C750.918 1011.02 722.467 1030.5 683.511 1048.54C614.721 1080.41 575.062 1068.08 507.526 1042.73C384.333 1001.42 305.169 825.474 239.232 723.276C205.362 667.857 162.374 613.782 145.422 549.996C134.322 501.77 160.007 455.535 196.142 424.831C244.614 383.591 301.936 352.175 356.332 319.64C426.369 277.75 494.762 235.255 571.127 205.533C613.22 189.15 647.588 175.739 693.024 171.865ZM505.525 1014.74C567.577 1037.36 610.664 1057.54 674.517 1024.58C798.075 960.791 922.779 840.806 970.686 708.361C993.182 646.167 1010.53 521.856 1002.5 457.433C999.118 430.347 991.359 403.991 979.527 379.393C945.63 307.414 879.452 239.381 803.612 212.776C772.327 201.801 731.775 194.689 698.545 197.559C652.387 200.629 619.101 214.293 576.5 231.153C505.26 259.349 440.455 299.172 374.965 338.381C365.576 344.004 355.838 349.278 346.405 354.843C290.394 392.75 160.826 450.668 168.734 532.957C173.825 585.929 234.381 664.595 261.529 710.45C320.556 801.948 400.478 972.643 505.525 1014.74Z" fill="white"/>
<path d="M683.535 302.616C708.258 298.903 754.158 307.755 777.758 316.251C838.367 338.648 887.72 384.008 915.141 442.516C955.037 527.893 933.758 619.041 902.943 703.197C892.96 730.46 883.433 753.66 868.244 779.028C822.179 855.961 748.256 925.093 667.022 963.469C616.764 987.212 572.722 993.636 520.532 974.674C491.387 962.702 461.609 946.144 437.155 926.095C412.795 906.123 392.563 881.494 374.896 855.533C326.963 785.099 260.934 640.106 252.837 556.039C249.276 519.064 253.458 487.78 277.75 458.484C331.014 394.249 500.648 337.275 582.069 318.461C615.485 310.843 649.388 305.548 683.535 302.616ZM522.537 947.801C566.737 966.122 601.461 963.349 645.4 944.899C737.284 906.319 831.893 813.446 868.672 720.952C901.086 639.434 930.355 544.912 894.908 460.271C872.833 407.345 830.736 365.288 777.79 343.263C751.9 332.773 709.224 324.543 681.557 328.58C649.161 331.503 617.007 336.674 585.328 344.057C511.279 361.528 345.31 416.445 297.392 474.97C277.447 499.329 275.421 525.022 278.519 555.193C286.605 633.939 351.767 776.216 397.19 842.609C413.321 866.187 431.818 888.583 454.064 906.664C473.896 922.783 499.011 937.994 522.537 947.801Z" fill="white"/>
<path d="M594.017 398.779C660.072 395.346 727.491 396.571 782.641 436.339C901.326 521.921 862.235 677.652 787.818 778.868C739.385 844.742 670.333 900.773 588.787 915.041C583.209 915.962 577.588 916.599 571.946 916.951C522.155 920.104 481.066 898.921 443.934 866.466C374.148 805.47 333.145 687.877 325.661 596.698C322.459 557.68 329.634 510.893 357.296 481.739C416.387 419.461 512.906 403.805 594.017 398.779ZM576.021 891.006C648.066 880.953 717.821 829.978 760.594 772.487C809.819 705.317 850.037 619.34 824.892 535.132C808.114 478.945 757.475 440.835 701.97 428.743C685.943 425.251 623.512 420.741 607.585 423.683C532.09 425.15 434.591 441.482 378.881 496.783C356.117 519.379 349.26 554.402 350.831 585.965C354.997 669.681 393.087 782.269 453.903 840.791C483.946 869.702 521.458 892.714 563.659 891.651C567.785 891.542 571.907 891.326 576.021 891.006Z" fill="white"/>
<path d="M550.995 458.8C635.357 454.325 750.371 476.587 780.8 567.447C796.017 612.882 788.856 663.328 767.555 705.58C733.936 772.266 679.108 824.69 608.261 849.417C595.738 853.13 582.879 855.594 569.871 856.773C533.768 859.74 491.777 849.469 463.365 823.706C389.75 756.952 343.679 601.402 409.748 516.063C439.631 477.465 504.197 462.261 550.995 458.8ZM607.035 822.666C697.277 789.096 790.788 673.355 755.47 572.927C728.628 496.603 620.839 480.839 551.54 484.504C452.464 492.56 395.014 532.63 404.626 638.957C410.037 698.816 436.034 763.307 480.957 804.922C504.776 825.927 538.196 834.016 569.521 831.101C582.324 829.837 594.923 827.004 607.035 822.666Z" fill="white"/>
<path d="M549.531 509.621C586.435 507.812 623.184 515.523 656.249 532.013C724.467 565.918 744.091 634.702 710.123 701.842C686.817 747.229 646.477 781.533 597.935 797.243C557.416 808.049 515.925 804.217 482.824 776.589C449.811 748.13 428.645 701.842 425.119 658.645C417.863 569.736 462.847 517.487 549.531 509.621ZM597.734 770.278C692.605 733.036 753.84 602.065 636.333 551.08C608.727 538.986 578.632 533.661 548.552 535.548C520.743 538.351 490.309 546.775 472.129 569.828C430.854 622.17 451.205 716.176 499.781 757.127C527.344 780.364 565 781.414 597.734 770.278Z" fill="white"/>
<path d="M2213.54 266.593C2213.78 266.561 2214.01 266.53 2214.25 266.499C2249.19 263.54 2283.96 273.826 2311.66 295.315C2341.04 318.129 2360.08 351.746 2364.54 388.679C2369.67 430.94 2357.04 464.607 2331.37 497.362L2367.79 533.781L2354.98 546.593L2318.56 510.17C2310.34 517.028 2303.44 521.708 2294.37 527.282C2277.37 536.176 2262.27 541.605 2243.07 543.971C2206.22 548.494 2169.09 538.147 2139.89 515.221C2110.79 492.405 2091.98 458.923 2087.65 422.195C2083.19 385.24 2093.69 348.036 2116.81 318.868C2141.46 287.786 2174.51 271.008 2213.54 266.593ZM2289.4 509.298C2295.71 505.05 2299.86 502.249 2305.66 497.269L2270.48 462.09L2283.29 449.279L2318.47 484.461C2340.1 457.532 2350.68 427.579 2346.94 392.76C2343.49 360.501 2327.32 330.948 2302.01 310.653C2276.54 290.177 2246.85 282.126 2214.57 284.576C2180.86 288.539 2152.29 303.143 2130.98 329.984C2110.83 355.329 2101.65 387.671 2105.46 419.822C2109.26 451.995 2125.76 481.315 2151.29 501.258C2176.65 521.091 2208.84 530.051 2240.81 526.173C2258.62 523.983 2273.98 518.338 2289.4 509.298Z" fill="white"/>
<path d="M2004.27 633.674C2080.88 625.366 2149.71 680.741 2158 757.347C2166.29 833.954 2110.9 902.773 2034.29 911.047C1957.71 919.319 1888.91 863.95 1880.63 787.367C1872.34 710.784 1927.69 641.979 2004.27 633.674ZM2032.29 893.181C2099.22 885.993 2147.55 825.766 2140.07 758.87C2132.59 691.974 2072.16 643.903 2005.3 651.668C1938.84 659.385 1891.12 719.373 1898.55 785.862C1905.99 852.352 1965.77 900.325 2032.29 893.181Z" fill="white"/>
<path d="M2212.62 632.688C2242.15 632.607 2275.13 631.183 2304.32 632.919C2370.53 636.857 2394.76 715.443 2343.64 758.691C2348.09 760.462 2352.91 762.36 2357.08 764.689C2375.89 775.02 2389.69 792.561 2395.3 813.276C2401.06 834.749 2397.52 855.235 2386.67 874.308C2383.37 879.747 2379.45 884.786 2374.99 889.326C2364.73 899.516 2351.85 906.672 2337.78 910.004C2323.7 913.398 2296.95 912.309 2281.11 912.276L2212.62 912.198V632.688ZM2230.3 894.362C2252.97 894.402 2315.52 897.026 2333.8 892.079C2344.7 889.132 2353.64 883.584 2361.71 875.794C2384.62 849.175 2385.35 810.477 2357.37 787.288C2349.69 780.942 2340.6 776.528 2330.85 774.415C2315.28 770.975 2250.69 773.197 2230.3 773.034V894.362ZM2230.3 755.03C2246.45 755.08 2299.53 756.341 2312.04 753.349C2321.3 751.208 2329.8 746.559 2336.59 739.91C2356.99 717.726 2358.13 685.236 2335.23 664.395C2328.6 658.411 2320.55 654.225 2311.84 652.236C2299.36 649.277 2246.08 650.754 2230.3 650.708V755.03Z" fill="white"/>
<path d="M1872.95 266.198C1893.7 266.252 1963.99 264.505 1979.84 268.44C1991.78 271.409 2002.68 277.563 2011.39 286.245C2024.82 299.576 2032.26 317.781 2032.03 336.699C2031.94 355.376 2024.37 373.24 2011.02 386.302C1984.56 412.123 1945.95 406.355 1910.53 406.198C1923.95 420.545 1938.9 438.518 1951.99 453.494L2032.89 546.034H2008.87C1970.47 500.998 1930 455.776 1890.96 411.147V545.198H1872.95V266.198ZM1890.96 388.198C1908.83 388.251 1927.03 388.196 1944.88 388.36C1967.16 388.566 1979.86 388.215 1997.43 373.036C2017.24 349.961 2019.13 316.954 1994.58 296.563C1987.97 291.105 1980.14 287.305 1971.76 285.478C1959.51 282.733 1906.09 283.971 1890.96 284.034V388.198Z" fill="white"/>
<path d="M1337.79 266.198C1358.5 266.257 1428.53 264.516 1444.31 268.363C1456.09 271.257 1466.88 277.237 1475.58 285.687C1489.14 298.851 1496.8 316.932 1496.84 335.827C1496.94 354.629 1489.47 372.681 1476.11 385.913C1468.01 393.945 1458.05 399.849 1447.12 403.1C1429.97 408.076 1377.57 406.251 1356.94 406.198L1356.17 406.917C1355.1 415.509 1355.75 441.764 1355.75 451.339L1355.79 545.198H1337.79V266.198ZM1355.79 388.198C1375.33 388.257 1395.05 388.255 1414.58 388.376C1436.07 388.509 1444.83 386.667 1461.74 373.427C1481.89 350.559 1484.08 318.53 1460.22 297.381C1453.8 291.721 1446.08 287.718 1437.76 285.72C1424.6 282.511 1372.2 284.08 1355.79 284.034V388.198Z" fill="white"/>
<path d="M1683.55 265.68L1686.2 266.349C1691.05 271.468 1717.94 329.457 1722.7 339.224L1823.46 546.034H1805.31L1753.31 439.198H1617.11C1600.43 474.671 1582.34 510.709 1565.15 546.034H1547.09L1683.55 265.68ZM1625.94 421.198H1744.46L1704.72 339.373C1700.16 330.01 1689.85 307.286 1685.1 299.852L1625.94 421.198Z" fill="white"/>
<path d="M2586.49 631.772L2588.78 632.393C2594.97 638.615 2714.48 887.907 2725.92 912.198H2708.03L2656.26 805.708H2519.83C2514.99 816.935 2507.53 831.162 2502.08 842.355L2468.06 912.198H2450.12C2462.51 884.362 2479.25 852.189 2492.75 824.48L2586.49 631.772ZM2528.65 787.688H2647.31L2588.04 665.931L2528.65 787.688Z" fill="white"/>
<path d="M1464.54 633.591C1476.36 631.916 1496.85 633.647 1508.55 636.545C1549.01 646.569 1576.32 668.048 1598.06 702.708H1576.65C1567.77 689.758 1554.26 677.265 1540.93 669.054C1513.24 652.015 1479.89 646.765 1448.31 654.476C1416.87 662.166 1389.81 682.105 1373.15 709.855C1356.51 737.521 1351.53 770.668 1359.33 802.001C1367.17 833.256 1387.09 860.12 1414.73 876.688C1442.43 893.347 1475.63 898.279 1506.98 890.394C1541.34 881.635 1566.05 860.826 1583.9 830.777C1585.06 828.65 1585.12 828.214 1585.73 825.84C1582.84 824.643 1496.96 825.351 1486.79 825.366V807.198H1612.55C1606.97 826.197 1600.12 841.456 1587.99 857.317C1565.39 886.935 1531.83 906.225 1494.86 910.85C1458.21 915.602 1421.18 905.564 1391.95 882.954C1362.47 860.145 1343.33 826.491 1338.8 789.489C1334.27 752.596 1344.64 715.421 1367.59 686.191C1392.22 654.914 1425.42 638.166 1464.54 633.591Z" fill="white"/>
<path d="M2419.62 266.198H2437.3V373.536C2437.27 394.584 2435.7 435.295 2440.28 453.857C2444.49 470.756 2453.19 486.201 2465.47 498.555C2483.51 516.857 2508.1 527.22 2533.79 527.353C2559.6 527.478 2584.38 517.286 2602.63 499.045C2615.11 486.667 2623.98 471.111 2628.26 454.06C2632.91 435.308 2631.26 395.373 2631.23 374.609L2631.28 266.198H2648.96L2648.99 375.632C2649.03 427.547 2655.84 470.932 2615.91 511.288C2594.39 533.019 2565.07 545.252 2534.49 545.264C2503.89 545.371 2474.52 533.242 2452.92 511.578C2412.79 471.292 2419.56 427.635 2419.57 375.731L2419.62 266.198Z" fill="white"/>
<path d="M2701.28 266.198H2843.3V284.198H2719.3V387.688H2843.3V405.708H2719.3V527.03H2843.3V545.034H2701.28V266.198Z" fill="white"/>
<path d="M1667.28 633.03H1685.3V893.688H1825.96V911.708H1667.28V633.03Z" fill="white"/>
<path d="M2774.95 633.03H2792.79V893.688H2933.63V911.708H2774.95V633.03Z" fill="white"/>
</svg>
