<svg xmlns="http://www.w3.org/2000/svg" width="300" height="248" viewBox="0 0 300 248" fill="none"><path fill-rule="evenodd" clip-rule="evenodd" d="M29.1621 125.248C29.8577 125.793 30.4529 126.41 30.9764 127.077L40.1911 124.352C40.0979 77.2028 70.8757 33.5602 118.333 19.541C165.784 5.52886 215.335 25.4427 240.878 65.0767L250.093 62.3517C250.165 61.5127 250.337 60.6665 250.624 59.8347C253.019 52.9219 247.798 45.7365 240.484 45.8871C234.345 46.009 229.412 40.8746 229.785 34.7434C230.222 27.4434 223.259 21.9361 216.253 24.0443C210.38 25.8156 204.242 22.2014 202.944 16.2065C201.395 9.05698 193.205 5.63642 187.031 9.55895C181.854 12.8504 174.963 11.029 172.101 5.60057C168.681 -0.867656 159.868 -1.95047 154.984 3.4923C150.882 8.06022 143.762 8.16061 139.538 3.70743C134.504 -1.5991 125.719 -0.265293 122.485 6.29615C119.775 11.8035 112.941 13.8185 107.67 10.6705C101.388 6.92003 93.2922 10.5701 91.9512 17.7626C90.8254 23.7933 84.7874 27.5796 78.8642 25.9733C71.8079 24.0587 64.9955 29.7596 65.6409 37.0453C66.1787 43.1622 61.3957 48.4328 55.2573 48.483C47.9429 48.5404 42.9232 55.8692 45.512 62.7103C47.6848 68.4542 44.4937 74.8221 38.5991 76.5287C31.5716 78.5581 28.7175 86.9697 33.0488 92.8571C36.6845 97.7979 35.3363 104.797 30.1159 108.024C23.8986 111.875 23.4182 120.745 29.1836 125.241L29.1621 125.248Z" fill="white"></path><path fill-rule="evenodd" clip-rule="evenodd" d="M267.85 137.324C265.268 134.67 264.401 131.027 265.146 127.693L258.076 129.78C255.695 174.613 225.541 215.222 180.091 228.646C134.642 242.07 87.2631 224.365 60.9026 188.015L53.832 190.102C56.2702 192.497 57.5179 196.025 56.7936 199.661C55.3666 206.832 61.5121 213.243 68.7405 212.102C74.8 211.149 80.3933 215.566 80.8595 221.683C81.4188 228.976 89.0702 233.486 95.7177 230.439C101.297 227.879 107.873 230.625 109.974 236.398C112.476 243.268 121.06 245.548 126.646 240.815C131.329 236.85 138.399 237.717 141.978 242.701C146.244 248.646 155.122 248.517 159.224 242.457C162.659 237.373 169.708 236.305 174.498 240.141C180.206 244.709 188.725 242.199 191.042 235.258C192.978 229.435 199.475 226.502 205.125 228.904C211.859 231.765 219.381 227.047 219.733 219.74C220.027 213.608 225.491 209.033 231.579 209.822C238.836 210.762 244.802 204.186 243.175 197.058C241.805 191.077 245.835 185.197 251.909 184.315C259.144 183.261 263.124 175.315 259.625 168.89C256.692 163.498 258.987 156.75 264.594 154.261C271.278 151.293 272.963 142.573 267.864 137.331L267.85 137.324Z" fill="white"></path><path d="M279.458 50.7925L0 133.307L1.58189 138.664L281.04 56.15L279.458 50.7925Z" fill="white"></path><path d="M298.417 114.98L18.959 197.494L20.5409 202.852L299.999 120.338L298.417 114.98Z" fill="white"></path><path d="M46.5195 140.767L52.6077 138.967L55.8418 149.917L67.0716 146.604L63.8375 135.654L69.9256 133.854L78.1005 161.534L72.0124 163.334L68.7281 152.219L57.4983 155.532L60.7826 166.647L54.6945 168.447L46.5195 140.767Z" fill="white"></path><path d="M76.8535 131.81L82.9417 130.01L91.1166 157.69L85.0284 159.49L76.8535 131.81Z" fill="white"></path><path d="M94.9441 152.168L97.2675 146.797C100.365 148.116 103.363 148.654 106.525 147.714C109.014 146.976 110.225 145.549 109.745 143.921L109.724 143.842C109.272 142.3 108.089 141.791 103.112 141.97C97.1169 142.193 93.0653 141.712 91.4375 136.219L91.416 136.14C89.9316 131.121 92.9865 126.61 98.6372 124.939C102.667 123.749 106.482 124 109.96 125.42L108.153 130.941C105.199 129.966 102.481 129.651 100.15 130.339C97.8197 131.028 96.909 132.455 97.3034 133.803L97.3249 133.882C97.8627 135.703 99.2252 135.947 104.367 135.753C110.412 135.56 114.17 136.642 115.597 141.461L115.618 141.54C117.239 147.033 113.962 151.357 107.988 153.121C103.8 154.362 99.132 154.147 94.937 152.16L94.9441 152.168Z" fill="white"></path><path d="M127.026 116.987L147.901 110.82L149.5 116.234L134.67 120.616L136.327 126.231L149.378 122.38L150.977 127.794L137.926 131.652L139.64 137.461L154.663 133.022L156.262 138.436L135.187 144.66L127.012 116.98L127.026 116.987Z" fill="white"></path><path d="M165.383 105.657L171.471 103.857L174.705 114.807L185.935 111.494L182.701 100.544L188.789 98.7441L196.964 126.424L190.876 128.224L187.591 117.116L176.362 120.429L179.646 131.537L173.558 133.337L165.383 105.657Z" fill="white"></path><path d="M195.433 96.7863L201.994 94.8501L212.722 104.402L216.544 90.5475L223.106 88.6113L231.281 116.291L225.228 118.077L219.893 100.006L215.598 114.133L215.44 114.176L204.275 104.746L209.574 122.695L203.601 124.459L195.426 96.7791L195.433 96.7863Z" fill="white"></path><path d="M229.756 86.6466L241.064 83.3049C247.669 81.3544 252.818 84.0866 254.489 89.7445L254.51 89.8234C256.403 96.227 252.402 101.024 246.192 102.853L241.566 104.223L244.019 112.527L237.931 114.327L229.756 86.6466ZM244.793 97.3816C247.841 96.4852 249.082 94.1403 248.379 91.7667L248.357 91.6878C247.554 88.9628 245.224 88.0593 242.176 88.9557L237.472 90.3468L239.975 98.8086L244.801 97.3816H244.793Z" fill="white"></path><path fill-rule="evenodd" clip-rule="evenodd" d="M49.0136 121.748C50.0318 79.4037 78.0632 40.6086 120.817 27.9877C163.57 15.3596 208.181 32.6991 232.038 67.6934L234.391 66.9979C210.074 30.7701 164.151 12.7494 120.15 25.7504C76.1485 38.7514 47.3857 78.8228 46.6543 122.451L49.0064 121.755L49.0136 121.748Z" fill="white"></path><path fill-rule="evenodd" clip-rule="evenodd" d="M249.077 132.441C245.692 172.412 218.321 208.181 177.597 220.214C136.866 232.24 94.4564 217.08 69.9029 185.363L67.5078 186.073C92.5489 219.017 136.278 234.85 178.264 222.452C220.25 210.053 248.353 173 251.479 131.731L249.084 132.441H249.077Z" fill="white"></path><path fill-rule="evenodd" clip-rule="evenodd" d="M178.615 83.4706C166.439 74.679 150.476 71.3946 134.987 75.9697C119.504 80.5448 107.887 91.9754 102.438 105.973L178.608 83.4778L178.615 83.4706Z" fill="white"></path><path fill-rule="evenodd" clip-rule="evenodd" d="M126.295 168.705C137.374 174.399 150.562 176.026 163.426 172.226C176.291 168.425 186.474 159.892 192.684 149.092L126.295 168.698V168.705Z" fill="white"></path><path fill-rule="evenodd" clip-rule="evenodd" d="M101.258 106.318C106.686 91.7319 118.669 79.7778 134.71 75.0378C150.752 70.2978 167.309 73.8259 179.794 83.1195L182.555 82.302C169.353 71.7965 151.419 67.6589 134.05 72.7861C116.682 77.9134 103.875 91.1367 98.5039 107.128L101.265 106.31L101.258 106.318Z" fill="white"></path><path fill-rule="evenodd" clip-rule="evenodd" d="M194.022 148.698C187.748 160.128 177.149 169.178 163.696 173.158C150.236 177.13 136.418 175.288 124.944 169.099L121.832 170.017C134.209 177.389 149.49 179.791 164.356 175.395C179.221 171.006 190.752 160.68 197.135 147.772L194.022 148.69V148.698Z" fill="white"></path><path fill-rule="evenodd" clip-rule="evenodd" d="M205.215 145.391C198.768 162.279 184.821 176.098 166.183 181.598C147.546 187.105 128.328 183.082 113.742 172.405L70.8809 185.061C95.2335 216.269 137.098 231.149 177.305 219.274C217.513 207.399 244.576 172.161 248.069 132.728L205.208 145.384L205.215 145.391Z" fill="white"></path><path fill-rule="evenodd" clip-rule="evenodd" d="M91.1191 109.315C96.189 89.523 111.241 72.7931 132.216 66.5974C153.198 60.4016 174.919 66.2675 189.928 80.129L231.061 67.9814C207.382 33.4961 163.324 16.4435 121.087 28.9139C78.8495 41.3914 51.1265 79.6414 49.9863 121.463L91.1191 109.315Z" fill="white"></path></svg>